<svg width="34" height="32" viewBox="0 0 34 32" fill="none" xmlns="http://www.w3.org/2000/svg">
<path d="M14.205 7.99883C15.1746 7.99883 15.9607 7.21098 15.9607 6.23909L15.9607 1.75974C15.9607 0.787855 15.1746 0 14.205 0L9.67861 8.25701e-07C8.70897 9.53149e-07 7.92294 0.787856 7.92294 1.75975V6.23909C7.92294 7.09454 7.31397 7.80741 6.50684 7.96595C6.41497 7.95107 6.32072 7.94334 6.22466 7.94334H1.75567C0.78603 7.94334 -8.47639e-08 8.73123 0 9.70308L3.95717e-07 14.24C4.80481e-07 15.2119 0.78603 15.9997 1.75567 15.9997H6.22466C7.1943 15.9997 7.98033 16.7876 7.98033 17.7595V22.1813C7.98033 23.1532 8.76637 23.941 9.73601 23.941H14.205C15.1746 23.941 15.9607 23.1532 15.9607 22.1813V17.6444C15.9607 16.6725 15.1746 15.8846 14.205 15.8846H9.73601C8.89298 15.8846 8.18874 15.2891 8.0192 14.4949C8.03144 14.411 8.03778 14.3252 8.03778 14.2379L8.03777 9.75858C8.03777 8.78669 8.82381 7.99884 9.79345 7.99884L14.205 7.99883Z" fill="white"/>
<path d="M19.4898 23.9225C18.5201 23.9225 17.7341 24.7104 17.7341 25.6823L17.7341 30.1616C17.7341 31.1335 18.5201 31.9213 19.4898 31.9213H24.0161C24.9858 31.9213 25.7718 31.1335 25.7718 30.1616V25.6823C25.7718 24.8268 26.3808 24.1139 27.1879 23.9554C27.2798 23.9703 27.374 23.978 27.4701 23.978H31.9391C32.9087 23.978 33.6948 23.1901 33.6948 22.2183V17.6813C33.6948 16.7094 32.9087 15.9216 31.9391 15.9216H27.4701C26.5004 15.9216 25.7144 15.1337 25.7144 14.1619V9.74008C25.7144 8.76819 24.9284 7.98033 23.9587 7.98033H19.4898C18.5201 7.98033 17.7341 8.76819 17.7341 9.74008V14.277C17.7341 15.2488 18.5201 16.0367 19.4898 16.0367H23.9587C24.8018 16.0367 25.506 16.6322 25.6756 17.4265C25.6633 17.5104 25.657 17.5961 25.657 17.6834L25.657 22.1628C25.657 23.1347 24.8709 23.9225 23.9013 23.9225L19.4898 23.9225Z" fill="white"/>
</svg>
