<?xml version="1.0" encoding="UTF-8"?><svg id="Layer_1" xmlns="http://www.w3.org/2000/svg" width="262.45" height="32.93" viewBox="0 0 262.45 32.93"><defs><style>.cls-1{fill:#4e2a84;}</style></defs><polygon class="cls-1" points="1.05 2.29 1.05 3.48 4.07 6.87 4.07 29.96 0 31.1 0 32.43 10.94 32.43 10.94 31.1 7.5 30.18 6.63 29.08 6.63 9.8 25.81 32.66 27.5 32.66 27.5 5.18 31.57 3.98 31.57 2.52 20.45 2.52 20.45 4.17 23.98 5.04 24.84 6.09 24.84 24.37 24.84 24.37 24.62 24.37 5.99 2.29 1.05 2.29"/><path class="cls-1" d="M42.14,32.93c-5.4,0-10.62-3.48-10.62-10.9s5.49-11.08,10.62-11.08,10.71,3.34,10.71,10.72-5.72,11.27-10.71,11.27ZM48.64,22.31c0-5.04-2.75-9.34-7.09-9.34-3.89,0-5.81,3.39-5.81,8.43s2.43,9.48,7,9.48c3.89.05,5.9-3.48,5.9-8.57Z"/><path class="cls-1" d="M107.34,20.15c0-5.04-2.84-6.05-6.13-6.05-2.79,0-4.62,2.06-4.62,2.06v13.01l.87,1.1,2.93,1.01v1.15h-10.52v-1.15l2.97-1.15V8.34c0-3.94-1.01-5.04-3.16-5.04v-1.05l6.68-2.24h.46s-.23,4.67-.23,8.15v6.27s4.35-3.48,7.32-3.48c3.71,0,7.14,1.56,7.14,7.01v11.22l.87,1.1,2.93,1.01v1.15h-10.52v-1.15l2.88-1.1.14-10.03Z"/><path class="cls-1" d="M149.94,20.84c0,6.27,3.57,8.89,7.64,8.89,2.52,0,5.54-1.05,5.54-1.05l.46.87c-1.1,1.1-4.12,3.39-7.92,3.39-5.12,0-9.75-3.85-9.75-10.9,0-6.41,4.44-11.08,9.93-11.08,4.3,0,7.64,2.56,7.64,7.47,0,1.28-.23,2.38-.23,2.38h-13.31v.05ZM156.57,19.1c2.15-.09,2.93-.5,2.93-2.7,0-1.88-1.37-3.34-4.26-3.34s-5.31,2.66-5.31,6.27l6.63-.23Z"/><path class="cls-1" d="M168.47,32.11c-.32-.14-1.14-.6-1.19-1.56l-.27-4.31h1.97c.55,2.93,2.52,4.86,5.08,4.86s3.66-1.37,3.66-3.16-1.42-2.61-3.11-3.53l-2.29-1.19c-3.29-1.69-4.94-3.02-4.94-6.27,0-4.08,2.93-6,7.5-6,3.2,0,5.67,1.24,5.67,1.24l-.59,5.27h-1.83c0-3.3-1.37-4.53-4.12-4.53-1.83,0-3.57.73-3.57,2.52,0,1.47.59,2.06,4.16,3.94l2.01,1.05c3.71,1.88,4.76,3.48,4.76,6.55,0,3.71-3.71,5.91-7.32,5.91-2.24.05-4.3-.23-5.58-.78Z"/><path class="cls-1" d="M203.98,20.84c0,6.27,3.57,8.89,7.64,8.89,2.52,0,5.54-1.05,5.54-1.05l.46.87c-1.1,1.1-4.12,3.39-7.92,3.39-5.12,0-9.75-3.85-9.75-10.9,0-6.41,4.44-11.08,9.93-11.08,4.3,0,7.64,2.56,7.64,7.47,0,1.28-.23,2.38-.23,2.38h-13.31v.05ZM210.61,19.1c2.15-.09,2.93-.5,2.93-2.7,0-1.88-1.37-3.34-4.26-3.34s-5.31,2.66-5.31,6.27l6.63-.23Z"/><path class="cls-1" d="M259.52,30.28l-.87-1.1.05-11.45c0-5.27-3.43-6.78-6.95-6.78-2.97,0-7.18,3.48-7.18,3.48,0-1.88.09-3.62.09-3.62h-.37l-6.59,2.38v1.15c2.52,0,3.2,2.24,3.2,6.32v9.48l-2.97,1.15v1.19h10.39l.09-1.15-2.93-1.01-.87-1.1v-12.96s1.6-2.11,4.44-2.11,5.95,1.05,5.95,6.05l-.14,10.03-2.88,1.1v1.19h10.39l.09-1.15-2.93-1.1Z"/><path class="cls-1" d="M134.24,32.66l-4.85-13.42-5.54,13.42h-1.88l-5.44-16.58c-.78-2.06-1.19-3.3-2.65-3.3v-1.28h8.92v1.28l-2.7.87,4.07,13.74,3.57-8.57.82-2.2-1.24-3.48-1.56-.37v-1.28h8.6v1.37l-2.7.82,4.58,13.74,4.76-13.65-3.07-1.1v-1.19h8.1v1.28c-1.83.23-2.75.73-4.21,4.44l-5.49,15.44h-2.1Z"/><path class="cls-1" d="M87.35,29.31s-1.28.82-3.16.82c-2.01,0-3.89-1.15-3.84-3.94l.18-11.82h6.73l.09-.73h0l.46-3.71-.87-.14-.64,1.42-.37.32-5.31.23h-.05v-5.45l-2.61.46-1.14,5.08-3.71.37v1.74c2.01,0,3.71.18,3.71,2.11s-.18,8.06-.18,10.49c0,4.63,1.74,6.32,4.71,6.32,2.52,0,4.62-1.05,6.5-2.56l-.5-1.01Z"/><path class="cls-1" d="M197.89,29.31s-1.28.82-3.16.82c-2.01,0-3.89-1.15-3.84-3.94l.18-11.82h6.68l.09-.73h0l.46-3.71-.87-.14-.64,1.42-.37.32-5.31.23h0v-5.45l-2.61.46-1.14,5.08-3.71.37v1.74c2.01,0,3.71.18,3.71,2.11s-.18,8.06-.18,10.49c0,4.63,1.74,6.32,4.71,6.32,2.52,0,4.62-1.05,6.5-2.56l-.5-1.01Z"/><path class="cls-1" d="M70.55,11.27h0s-.78-.27-2.24-.27c-3.16,0-6.45,4.99-6.45,4.99,0-2.75.09-5.08.09-5.08h-.37l-6.45,2.38v1.05c2.43,0,3.2,2.2,3.2,5.95v9.85l-2.97,1.15v1.19h10.39v-1.15l-2.93-1.01-.87-1.1v-9.71c0-2.98,2.33-4.67,4.9-4.67.5,0,1.05.14,1.51.27l.69,1.05.87.09.64-4.99h0Z"/><path class="cls-1" d="M235.64,11.27h0s-.78-.27-2.24-.27c-3.16,0-6.45,4.99-6.45,4.99,0-2.75.09-5.08.09-5.08h-.37l-6.45,2.38v1.05c2.43,0,3.2,2.2,3.2,5.95v9.85l-2.97,1.15v1.19h10.39v-1.15l-2.93-1.01-.87-1.1v-9.71c0-2.98,2.33-4.67,4.9-4.67.5,0,1.05.14,1.51.27l.69,1.05.87.09.64-4.99h0Z"/></svg>