<svg id="eef3cbcb-54fb-4e0a-8476-c001476f09ff" xmlns="http://www.w3.org/2000/svg" width="434.94" height="500" viewBox="0 0 434.94 500"><defs><style>.background{fill:#fff;}.lines{fill:#ffd040;}.lions{fill:#c10230;}.shield{fill:#231f20;}</style></defs><path class="background" d="M250.12,500,245,497.6c-57.41-26.43-103.74-64.83-134-111C38.37,275.77,36,161.31,33.45,40.14c-.2-9.18-.39-18.37-.62-27.61L32.53,0H467.47l-.3,12.54q-.35,13.91-.61,27.78c-2.56,121.1-5,235.51-77.52,346.24-30.19,46.13-76.44,84.52-133.75,111Z" transform="translate(-32.53)"/><path class="lines" d="M249.12,149.2,78.71,282.68C51.32,198.27,52.08,110,49.88,20.16H447.47c-2.2,90.09-1.18,178-28.76,262.59Z" transform="translate(-32.53)"/><path class="lines" d="M387.12,354.73q-6.3,11.13-13.51,22.17c-30.31,46.3-75.33,80.57-124.84,103.47-49.71-22.9-94.71-57.17-125-103.47-4.73-7.2-13.23-21.66-13.23-21.66L249.12,245.17Z" transform="translate(-32.53)"/><path class="lions" d="M132.46,87.92C112.32,83.66,94.4,68.77,98.72,49.86c0-.18-.77-4.88-2.5-5.52-.14-.06-.43-.59-.72-.67a5.84,5.84,0,0,1-2-1c-.23-.17-1.17-.47-1.17-.81-.36.78-.29,1.5-.83,2.18a2.64,2.64,0,0,1-.76.8c-.36.19-.39.52-.67.77-1.51,1.51-.7,3.79-.47,5.53.07.44.26,1-.28,1.06s-.13-.17-.87-.62c-.18-.11-.44-.39-.62-.48s-1.58-.33-1.78-.63-.14-.43-.44-.7c-.7-.62-.76-1.86-1.27-3.15A9.49,9.49,0,0,1,84,45c0-1.28-3.28-3.34-2-2.28.44.36-.07-.52-1.82-1a10.06,10.06,0,0,0-3.64-.07,1.73,1.73,0,0,0-.69.39c-1.28,1-2.47,2.16-4.13,2.24.28-.18.43.16.55.3.79,1,.22,2.27.69,3.4a7,7,0,0,0,2.21,2.69c.92.72,2.52-.22,3.22,1,0-.05,1.5.34,0,1.81-2.71,2.71-5.72.52-8,5.56,3.39-1.45,3.77,3.7,5.21,3.89,6.5.88,11.43,2,15,8.57,2.17,4-3.9,4.18,1.6,5.11a9,9,0,0,1,6.06,3.85c1.48,2.07,1.69,4.83,3.27,6.76a16.83,16.83,0,0,0,3,2.81,12,12,0,0,0,3.37,1.23,20.38,20.38,0,0,1,1.91.83,7,7,0,0,1,2.2,1.07c.54.45,1.92.91,2.23,1.54.57,1.1.12,2.22.71,3.32.19.31,1,0,1.4.15a3.67,3.67,0,0,0,1.31.12,22.74,22.74,0,0,1,2.62-.5c1.5-.17,1.33.3,3.27.21.41,0,.58.29,1.14.29.37,0,1,.41,1.14.06a25.09,25.09,0,0,1,2.64-5.39,32.62,32.62,0,0,1,2.37-3.84c-.16.06,1.77-1.29,1.6-1.31" transform="translate(-32.53)"/><path class="lions" d="M82.22,90.25c5.89,3.16,5.1,11,10.41,13.49,9.46,4.47,20.75,7.55,30.8,2.64-2.23,7,.24,12.78-.74,13.56-3.16,2.52-12.76-.48-18.9-2.9-4.24-1.67-7.67,4.58-12.34,4a5.62,5.62,0,0,0,.44-3.14c-.73-2.27-1.32-2.93-5.1-2.49-2.44.27-1.43,2.28-5.09,4.06-1.44-.86-4.54-1.82-5,.92-.21,1.27-2.78-4.44-2.26-5.39,2.39-4.27,2.88-5.27,2.71-6.2-.29-1.4-5.47-3.31-6.14-2.11-1.62,2.8-6.37-9.08,7.67-8.33-3.78-2.41-3.34-2.83-2.46-5.71.11-.39-1.3-1.88-2.27-.85a1.94,1.94,0,0,1,1.32-2.42c2.31-.32,4.57-.45,6.94.83" transform="translate(-32.53)"/><path class="lions" d="M110.17,61.44c8.53,2,21.27-9,28.68,3.92-5.47-2-21.63,6.62-28.68-3.92" transform="translate(-32.53)"/><path class="lions" d="M181.48,80.21c-.17,11.06-11.68,23-2.34,33.52-3.82-.06-8.34-1.37-11-3.52-1.48-1.2-1.15,5.27-1,6.6.18,1.14-7.09-6.81-9.81-4.87-7.7,5.51-11,7.78-22.48,8.2-3.18.12-4.84,2.66-5.74,5.43-2.6-5.27-.67-17.28.82-22.6C134,88.34,148.78,84,160.62,77c8.5-5,12.13-14.85,11.7-24.44,6,7.5,9.29,18.23,9.16,27.63" transform="translate(-32.53)"/><path class="lions" d="M127.31,204.7c1.44.32.37,1.51-.2,1.87a9,9,0,0,0-2.73,2.9,3.78,3.78,0,0,0-.75,2.88,10.37,10.37,0,0,0,.71,2.21c.19.45.6.69.94,1.07a7.14,7.14,0,0,1,.66.84c-.32-1.11,1.27-2.24,1.64-2,7.33,4.24,7.75-4.34,12.15-7.25,1.86-1.25,6.07.19,5,4,4.38-2.33,5.67-8.19,9.09-11.86,7.54-8.14,18.1-13.55,28.13-18-3.63-3.84-9-7.05-11.68-11.44-1.33-2.17-2.93-6.44,0-5.65,12.33,3.2,19.25-4.28,20.61-13.94,18.26,2.34,23-14.83,25.47-27.81,1.19-6.3,4.66-6.84.87-17.58-1.57-4.48,8.11-6,6.46-13.7a7.08,7.08,0,0,0-4.7-4.55c1.5,4.18-5.52,5.23-6.29,6.94-1.19,2.67-2.93,4.82-3.16,7.62-5.95-8.18-1.13-18,4.45-25.72,8.15-11.17,25-5.3,32.17,1.9.13-3.62-2.69-8.21-5-10.43,6.66-.85,13.87,3.19,23-1.6,5.24-2.77,10.53-5.15,13-11.3-11.14,1.52-26.24-7-36.28-8.75-18.71-3.23-31.27,9.47-38,24.62s-2.39,26.42,4.84,37.73c1.82,2.85-6.42,1-9.67,2.65s-4.46,5.52-3.75,9c4-4.27,14.58-1.64,15.53,5.66,1.3,9.85-8.67,24.17-18.32,19.88-10.31-4.61-16.16-15.44-19.59-27.62-8.81,7.56-25.12,1.31-32.69,8.7-7.2,7,11.23,11.77,18.4,15.08,2.64,1.23,5.29,3.92,4.85,7.24-11.24-6.57-24.77.88-24.11,12.83.51,8.93,11.49,14.49,20.63,15.24,3.81.3,6.11,4.53,1.47,7.4-8.12,5.06-17.18,10.7-25.93,1.57-1.46-1.53-6.7-.58-7.74,2.2a10.73,10.73,0,0,0-.46,4.79c.47-.83,1-2,1.77-1.91s1.91,1,1.79,1.65c-.75,4.48-6.66,1.57-8.5,5.06,0,.08-.13.15-.18.23-.11.28-.27.53-.4.79-1.2,2.37-2.84,3.86.11,5.7-.08-.43,1.46,1.89,1.43,2.29a2.31,2.31,0,0,1,2.39-2.11l1.3.14Z" transform="translate(-32.53)"/><path class="lions" d="M89.27,162.63a5,5,0,0,0-3.51.6c-.74.32-1.62,0-2.07.72a1.79,1.79,0,0,0-.28,1.45c.07.27.19.78.42.94a7.68,7.68,0,0,1-4.17-2.21c-.38-.35-.61-.73-1-1.11s-.21-.69-.37-1a2.92,2.92,0,0,1-.1-1.14,6.47,6.47,0,0,1,.41-3.11,5.8,5.8,0,0,1,.77-1.29,7.16,7.16,0,0,1,.79-.85A6.64,6.64,0,0,1,82.89,154a6.78,6.78,0,0,1,4.63.32,27.37,27.37,0,0,0,3.75.76c.65.19,1.86-1.68,1-1.89-3.83-.93-3.81-2-5.25-5.81-.67-.76-1.54.1-1.92.5,0-7.4,8.8-7.89,12.49-5,5.46,4.38,1.35,12.92,8.06,15.28,3.49,1.23,7.19,2.19,10.8.67,6.48-2.75,0-9.23,2.11-14.71,4.22-11.05,13.59-11.63,24.75-1-10,3.3-14.65,16.44-9.18,25.1-8.8-3.44-19.9,2.35-26.09,6.28,5.75-5.73-2.33-10.36-4.36-9.34l-2.46,1.7c-1.17,1.48-1.26,3-2.71,4.43a4.21,4.21,0,0,1-2.34,1.21,3.92,3.92,0,0,1-3.67-.6c-.23-.14-1,.2-1.17.39-.71.86,0,1.28,0,1.6-.15-.1-1.06-.84-1.19-.94a8.48,8.48,0,0,1-2.3-2,5.36,5.36,0,0,1-.29-4.17c.58-1.16,1.75-1.52,2.53-2.32s-.14-1.87-1-2" transform="translate(-32.53)"/><path class="lions" d="M303.52,65c.79.51-.06,1.94-1,2.19-1.07.3-2.58-.15-3.51.21-4.2,1.54-4.21,11.81-3.64,10.62s3.73-.46,5.73-.06c3.24.65,5.7-5.89,7.82-5.71,5.05.45,9.76,6.69,11.68,10.78.35.76-2.11.79-2.27,3.31,6.87-.65,12.67,3.79,17.63,7.85a42.77,42.77,0,0,1,7.6-9.5c-10.32-10-30.86-13.09-27.69-31.32.42-2.34-2.24-4.4-3.41-5.55-1.35-1.27-4.39-1.34-6.25-1.78,2,4-1.58,4.43-1.07,10.84,0,.21-.58.08-.81,0a25.94,25.94,0,0,1-3.46-2,4.35,4.35,0,0,0-3.23-.31,4.61,4.61,0,0,0-2,.85A9,9,0,0,0,293.55,58c-.14.17-.27.38-.42.54a3.11,3.11,0,0,0-.69,1.26c.53-.05,2.2.07,2.49.52.47.75.49,1.6,1.06,2.31.71.9,1.3.93,2.33,1.36a9.51,9.51,0,0,0,4.8.82" transform="translate(-32.53)"/><path class="lions" d="M330.22,57.66c6.45-.48,12.84-5.4,20,2.93-1.32-.63-2.84-.85-3.65-.21-7.89,6.34-17.47,4.2-22.52-3.64,2.06-.33,4.54,1,6.2.92" transform="translate(-32.53)"/><path class="lions" d="M358.12,80.94c10.6-5.33,21.31-9.62,25.67-22.7.85-2.54,2.82,3.81,2.94,4.17,5.6,16-5.57,31.82-3.27,48.11a25.28,25.28,0,0,0-12-4c-14.55-.41-18,8.39-18.83,7.57-4-4-15.44-7.47-14.61-6.7-6.8-6.26,12.82-22.78,20.12-26.49" transform="translate(-32.53)"/><path class="lions" d="M329.15,187.17c1.46,2.23-.48-1.27,1.18,2.54,7.67-3.2,15.61-6.86,24.09-3.43-3.76-17.16,8.84-21.33,9.83-23.91,1.6-4.11-6.82-12.3-13.16-10-8.09,2.88-4.72,13-6.24,20.15-.84,3.93-5.74,6.82-9.81,5.41-6.69-2.29-9.38-8.49-11-15.46-1.11-4.63-10.18-5.19-12.14-1.4-5.56,10.77,3.31-1.25,2.74,6.93-.1,1.39-6.51.34-7.94,5.19-1,3.31,2.17,5.51,6.13,6.68.73.21-.77-1.64.23-2,.72-.28,3.62,1.27,3.28,1.46-3.81,2.33-4.79,7.71,2,10.05,0,0-.5-1.93,0-2.32,5.32-4,10.88.32,10.89.18" transform="translate(-32.53)"/><path class="lions" d="M213.79,295.72c6.38,2.93,8.44-.22,16.83-1.57,1.17-.19,5.89,2.87,7.26,4.43-8.4,1.32-18.63,8.6-24.09-2.86" transform="translate(-32.53)"/><path class="lions" d="M210.38,302.4a3.46,3.46,0,0,0-1.46-.81,5.55,5.55,0,0,0-1.68-.5c-.15,0-1.21-.28-1.37-.34,0,.38.45,1.35.17,1.6-.67.61-.9.47-1.44,1.27a3.27,3.27,0,0,0-.49,1,22.62,22.62,0,0,0-.57,2.39,8.68,8.68,0,0,0,.25,1.8c.06.21.5,1.11.63,1.36,0,0,1,1.09,1,1,1.18,1.2.22.49,1.67,1.93.75.7-.34,1.92-1.06,1.71-4.93-1.42-5.61-7.12-10.11-8.86-3.27-1.26-8,1.28-8.47,6.23a1.88,1.88,0,0,1,2.47,1c1.2,5,8.55,2,8.73,5.53.13,2.3-5.5-.4-7.73,1.08-2.94,1.95-3.34,7.57-.75,10.84,2.68-2.53,6,1.18,8.61-.66,1.82-1.3,2.47-3.13,4.33-3.95,5.65-2.48,7.31,2.7,6.06,7.9,3.05-1.41,10.24-2.88,11.88-3.34,3-.8,3.11-7.63,6.75-10.15-5.17,0-11.56-2.25-13-7.27-.14-.53.22-1.15.27-1.76a12,12,0,0,0-.78-5.52,4.1,4.1,0,0,0-.4-.65c-.2-.27-.37-.56-.57-.86a6.35,6.35,0,0,0-2-1.49c-.33-.21-.73-.28-1-.6" transform="translate(-32.53)"/><path class="lions" d="M172.41,337.82c2.26,4.37-8.89-2.64-13.07,3.84-1.32,2.08-.61,6.76-.61,9.4,2.56-2.31,5.11,2.09,9.89-2.12.53.48,1.1.77.37,1.51-1.76,1.77-2.75,4-1.82,6.1.59,1.4,4.55,4.18,4.59,3.94.4-2.85,5.3,0,6.06-5.61.33-2.31,1-6.15,4.38-4.75,3.07,1.26,3.7,4.72,3,8.15,4.9-1.59,13.5-6.58,18.64-2.89,6.9,5,18.24,7,26.32,9.5-5.36-3.7-7.06-13.37-6.17-19.66-12.72,2.48-26.07,2.06-37.86-3.36-3.23-1.49-2.79-5.2-3.77-8.26-1.1-3.43-5.45-6.61-9.39-6.31-2.12.16-7.21,4.59-6.24,4.8-.34-.07-.32.65-.49,1a1.85,1.85,0,0,1,2.6,1,5.94,5.94,0,0,0,1.22,2.08c.72.71,2,.88,2.37,1.64" transform="translate(-32.53)"/><path class="lions" d="M202.89,407c2.47-3,4.52-1.4,5.6-1.38,2.58.09,2.4,3.71,2.14,6,10.12-4.88,19.75-11.82,31.61-9.27-6.9-7.19-4.45-22.64,5.31-24.55,0,0-6.3-1-7-1.44-8.5-5.36-18.89-10.48-24.6.75-2.84,5.59,2.38,10.1,6.28,14.7.7.84-.43,1.35-1.35,1.58-9.28,2.37-26.4,3.76-27.16-10.07-.09-1.4-3.68-2.55-6-2.49-6.87.21-6.76,8.94-6,8.34,1.5-1.14,6.11-.73,5.55,2.76-.51,3.27-6.93-1.72-9.48,1.57-2.15,2.74-2.08,7.24-.56,10.26-.31-1.1,1-1.92,1.68-2,7.14-1.21,7.54,1.27,5.42,8.14-.16.52,2.11,4.87,3.61,5.26a2,2,0,0,1,.12-1.32,1.71,1.71,0,0,1,.91-.7c.77-.25,1.56-.21,2.35-.42a5,5,0,0,0,1-.56,5.58,5.58,0,0,0,1.35-1.35c1.66-2.07,3.12-4.73,5.91-5,1.29-.13,2.11.45,3.22,1.16" transform="translate(-32.53)"/><path class="lions" d="M276.7,439.06c6.51-6.45,11.23-15,18.2-21.32-7.64-4.48-17.12-9.16-18.13-19.22-.07-.68,1.06-1.43,1.33-1.31,10.63,5.94,25,6.42,32.63-4.38,6.18-8.74,8.87-22.92,20.93-23.73-4-7.68.51-16.54,7.1-20.58-2.23-.84-5.08-2.66-7.59-2.2-3,.52-4.35,4.63-7.82,5.27,5.46-18.32-5.1-43.9-25.37-43.46-3.8.09-8.72,3.13-10,7.27-1.17,3.89-1.77,8.79,1.05,12.13,6.64,7.92,11.43,16.54,9.34,27,4.73-4.05,9.09-10,8.93-16.41,0-1.6,2.88-.46,3.33-1.11,5.54-8.08-3.52-13.08-8.33-18.17-1.33-1.37,2.05-3.51,2.48-3.36,17.39,5.17,19,26.48,11.58,40.33-2-2.46-9.34-1.65-11.82-2.49,8.12,4.08,6,4.66,5.68,6-.62,2.43-7.91,1.37-9.33,3.16-2.44,3.11-4.27,4.47-4.46,14.77,3.37-3.62,7.79-9.11,12.58-6.66,10.24,5.22-.5,22.83-10.15,25.75-8.25,2.48-15.88-.13-21-7.28-7.38-10.33-2-22.85-7.26-33.33-4.38,1.08-3.38,6.75-5.66,5.74-8-3.71-12.6-12.26-18.43-19.43-2.4.86-3.48,3.09-5.8,3-3.44-.15-9.94-1.2-11.32.52-1.6,2-2.78,16.53,11.43,21.8,9.64,3.58,17.28,6.77,23.35,14.26-4.07.32-5.48-1.63-8.81-1.75s-5.35,1.14-7.82,2.4-5.14,5.84-4.67,9.52c2.22,17.6,23,17.84,32.54,29,1.65,1.88-2.5,9.53-6.41,12.63-3.33,2.64-11.33-4-10-9.61,1.06-4.48-9.84-7.49-13.66-2.35,1.52-.18,1.89.83,1.75,1.52-.67,4.15,4.49,4.31,4.32,6.41-.23,2.91-2.76-1.22-4.75-1.59a11.13,11.13,0,0,0-11.35,4.17c-.77,1-2.51,2.73-1.74,4.53,3.37-1.63,5.12,3.58,8.26,2,1.9-1,3.46-2.65,5.76-2.06.92.25,1.86,1.48,1,2-6.12,3.92-11,9.41-6.59,15.65a3.21,3.21,0,0,1,2.2-2.75c1.79-.5,4.15.72,5.9.15,2.85-1,1.37-3.77,2.47-5.78,1.7-3.19,7.49-8.44,10.74-4.61.6.69.13,3.26-1.62,3.29,1.8,0,3.4,1.71,4.93,1.39a4.08,4.08,0,0,0,1.29-.28,3.22,3.22,0,0,0,1-.52,4.5,4.5,0,0,0,1.67-2.62c1.31.11,3,.24,3.83-.88a21.38,21.38,0,0,1,2.79-2.83" transform="translate(-32.53)"/><path class="lions" d="M247.07,311.81c11.39-3.18,24-9.05,26.77-21.65,3.45,2.08,4.54,6.77,4.58,9.64.25,15.78-6.68,29.42-3.32,45.94.37,1.86,3.81,7.73,2.25,7-1.9-.85-5.9-4.59-8.11-2.85-2.76,2.15-2.58,5.54-3.91,4.76-5-3-10.29-7.51-12.72-13.29-1-2.19-.55-6.86-1.17-6.19-3.8,4.13-11.58,5-17.36,5.88,1.32-1.17,2.5-5.87,2.29-6.84-4.54-2.27-11.05,5.46-11,4.47a14.12,14.12,0,0,1,.76-4c3.38-9.88,9.74-19.89,20.89-23" transform="translate(-32.53)"/><path class="lions" d="M162.44,43.13c3-.08,5.14-1.9,7-3.87-.15,1.65,2.29,4,1.38,5.76-1.13,2.21-4,3.53-4.53,5.59-1.17,4.21,2.23,8.32-.25,12.49-7.31,12.31-23.27,8.24-34.17,11,.75-1.33-.19-3.3-1-3.85,4.84.62,11.27-.44,12.57-4.08,1.59-4.48,2.39-7.79.28-11.49-3.5-6.11-10.76-3.26-16.21-1.13-.86-3.79,2.71-6.09,4.77-6.62,5.77-1.51,11-4,16.39-6,4.69-1.76,9,2.35,13.76,2.22m-8.07,6.13c.48-.22.72-.55.66-.61-4.13-5.76-9.1-5.19-11.2-.06-1.42,3.48,6.88,2.36,10.54.67" transform="translate(-32.53)"/><path class="lions" d="M373.1,66.33c-1.56,1.34-4.16,1.3-5.93,2.49-1.08.76-2.06,1.55-3.18,2.22a14.54,14.54,0,0,1-2.66,1.17,12.6,12.6,0,0,1-2.71.4,12.21,12.21,0,0,1-2.17.17c-.87,0-3.57.07-4.43.06a25.26,25.26,0,0,1-4.51-.23,19.53,19.53,0,0,1-3.46-.89,8.46,8.46,0,0,0-2.35-.41,3.24,3.24,0,0,1,.85-2.26c.86-.74,1-.08,2.3-.19.06,0,1.79.14,1.85.14.29,0,.65,0,.95-.06a5,5,0,0,0,1.49-.42,9.31,9.31,0,0,0,1.87-.93c.19-.17.42-.33.62-.52A12.07,12.07,0,0,0,353,66a8.11,8.11,0,0,0,2.2-4.68,15.9,15.9,0,0,0,0-4.19c0-.23-.08-.45-.1-.66a8.13,8.13,0,0,0-1.16-3.12c-3.16-6-10.75-.12-15.95-.39,0-1.15-.11-3.26.47-4,3.71-4.77,9.45-2.43,12.42-4.61,10-7.38,12.68-2.06,23.14.82,3.14.86,7.63-1.1,10.6-2.37.73-.31.72,4.4.35,5.36-1.25,3.3-4.67,3.13-5.88,6.09-1.76,4.34-2,10.45-6.65,12.64m-6.52-19.83c.46-.27-.37.35,0,0-4.51-2.25-10.39-5.19-12.45.81-1.52,4.4,8.52,1.32,12.43-.77" transform="translate(-32.53)"/><path class="lions" d="M261.45,279.67c4.63,1.09,9.68,1.24,12.69-2.8,1.46,6.25-4.28,7-5.35,10.09-1.62,4.65-1.51,9.29-6,11.69-9,4.77-20.27,10.51-30.61,11.34.09-1.25-.79-3.55.87-3.64a8.57,8.57,0,0,0,7.26-5c1.13-3-.16-10.16-2.86-11.56-3.11-1.64-5.84.87-8.71,2.12-1.19-3.15,3.74-8.37,11.49-7.92-.2,0,3.84-4.39,3.64-4.25,5.07-3.46,10.61-1.72,17.62-.1m-13.76,8.05c1.79.66,7.1-2.24,9-3.32a5.2,5.2,0,0,0,1.16-1.09c0-.05,0-.16-.11-.17a42.33,42.33,0,0,0-4.39-.59c-1.12-.14-2-.89-3.07-1.1a1.44,1.44,0,0,0-.86.08c-.43.17-.58.48-.92.64-.54.24-1.3.24-1.79.69a2.9,2.9,0,0,0-1.07,1.5,2.94,2.94,0,0,0,.48,2.44,3.14,3.14,0,0,0,1.55.92" transform="translate(-32.53)"/><path class="lions" d="M402,236c-.15-1.53,3.66-6,3.75-9.36.37-11.28,7.2-16.61,7.4-28.67,0-3.14-13.05-6.1-13.62-12.88-.27-3.36-1.39-8.22,2-8.15,4.35.08,8.61-.69,11.68-3.38,13.7-12,2.13-28.39.48-42.87-.36-3.17,5.54-10,5.37-12.25-.95-12.28-3.24-23.47,1.15-35.54-3.44,3.06-4.48,8.13-7.36,10.72-1.41,1.29-2.1-1.57-2-2,1.73-10.61,6-19.9,10.91-30,5.84-12,2.92-21.65-7.89-25.22-9.91-3.28-19.47,5.89-20.54,15.31-1,8.65,1.71,19,3.77,26.1.59,2.07.23,4.43.68,6.23,1.77-7.15,2-14.61,1.85-22.17,0-1.85,1.45-4.32,3.35-4.87,6.43-1.85,9.77,2.78,9.34,6.37-1.42,11.33-3.72,20-6.44,31.26-3.11,12.85,1.52,25.59,2.88,38.07-5-2.89-10.34-3-12.26,4.65-1,4.07,2.66,8.37,3.8,12,.12-4.92,4.77-11.61,9.3-8.62,5.54,3.67,5.74,21.29,4.52,23.63-2.7,5.1-7.13,8.75-13.27,7-3.47-1-2.06-6.12-4.14-8.28-11-11.36-16.07-25-17-40.65-.15-2.29,1.05-8.32.72-8.45-14.44-5.92-21.09,0-27.08,8.45-1-2.56-6.55-6.15-7-5.34-2.74,5-2,14.23,2.15,17.79,11.14,9.58,22.17,16,28.43,29.7-6.67.86-13.2,2.8-15.77,9.74-2.67,7.26-1.75,17.34,5.94,20.29,6.28,2.4,17.06-.28,19.42,0,6.67.88,14.12,6.59,13.08,12.87-.05.32-2.86,15-9.24,11.33-3.45-2-1.51-10-6.77-11.26-7.08-1.7-8.83,8.15-7.93,7.3,2.26-2.14,3.83,1.4,8.21,3.8-14.83-3.2-10.22,10.34-9.69,8.84.77-2.1,3.45.1,8.77-.27.19,0-1.16,1.11-1.23,1.23a22.09,22.09,0,0,0-1.85,3.45,3.92,3.92,0,0,0-.16,2.12,4.4,4.4,0,0,0,.72,2,.92.92,0,0,0,.37.33c.06,0,.28.36.32.36.32,0-.29-1,.57-1.1a3.79,3.79,0,0,1,1-.05c.39.15.89.39,1.3.51s.79.16,1.21.24a3.82,3.82,0,0,0,2.26-.15,8.14,8.14,0,0,0,2.2-.91c-1,.65,1-.95,1-.78.92-2,1.5-1.4,1.69-1.74,1.58-3,2.95-3.28,6.44-2.86.33,0,1,.75,1.19,1.05s1,2.26.84,1.56c.25,1.39,1.11,2.25,1.23,3.59" transform="translate(-32.53)"/><path class="lions" d="M295,100.11c-.89-.57-1.19-1.94-1.81-2.5-.2-.21-.36-.44-.56-.66a2.7,2.7,0,0,1-.57-1.19,5.41,5.41,0,0,1,1.61-6c.08-.07.06-.18.1-.26s.39-.29.44-.45.37-.18.27-.42c.13.06.14-.13.19-.17a1,1,0,0,0-.34-1.61,13,13,0,0,1,1.86.17c.24,0,.49.12.72.15,2.34.3,5.29,1.35,5.92,3.7l.82.93c2.44,5.65,1.61,19.52,15.18,22.85,7.06,1.75,14.18,3.93,21.43,3.8-1.75,7-1.73,16,3.87,21-8.15-4.42-13.58-3.48-20.65-10.16-3.17-3-10.53-7-14.09-6.44-1.47.25,2-4.68-1.24-5.66-2.14-.64-7.86-.5-8.84,1-4.69,7-9.63,7-11.29,8.41,1.91-1.61-7.69-9.39,4.23-13.61,1.14-.43,1.56-3,.15-3.65-2.33-1.07-4.27.53-6.58,1.86-2.63,1.57-3.24-4.14-7.38-2C277.54,97,288.46,95.92,295,103.53c.46.57,2.28-.12,1.52-.77Z" transform="translate(-32.53)"/><path class="shield" d="M45.92,16.32,46,20.25c.23,9,.41,17.92.6,26.84C49,163.48,51.34,273.41,120.5,379c28.53,43.56,72.33,79.82,126.65,104.85l1.63.75,1.62-.75c54.24-25.1,98-61.36,126.43-104.85C446,273.45,448.29,163.56,450.73,47.2q.28-13.44.6-26.95l.1-3.93Zm43.64,285.6,159.51-125.8L407.9,301.59q-6,15.54-13.47,30.9L249.08,217.66l-146,115.19Q95.55,317.46,89.56,301.92Zm280.8,72.88c-27.4,41.87-69.42,76.88-121.59,101.34-52.25-24.4-94.34-59.41-121.8-101.34q-6.89-10.51-12.89-21.13l135-106.47L383.43,353.35C379.36,360.53,375,367.67,370.36,374.8ZM443,47c-1.68,80.1-3.33,157.09-27,231.43l-167-131.89L81.43,278.86C57.65,204.36,56,127.21,54.33,46.93Q54.09,35.5,53.83,24H443.52Q443.24,35.54,443,47Z" transform="translate(-32.53)"/></svg>
